<svg version="1.1" id="Layer_1" xmlns="http://www.w3.org/2000/svg" xmlns:xlink="http://www.w3.org/1999/xlink" x="0px" y="0px"
	 width="100%" viewBox="0 0 1024 512" enable-background="new 0 0 1024 512" xml:space="preserve">
<path fill="#000000" opacity="1.000000" stroke="none" 
	d="
M515.550903,115.242661 
	C523.346313,121.462975 529.623413,119.671059 536.813049,113.941002 
	C546.292175,106.386337 556.742371,99.985130 568.433777,96.095154 
	C570.633423,95.363274 572.911438,94.715744 575.202942,94.436920 
	C585.583374,93.173805 592.193237,100.743874 589.633606,110.856682 
	C586.828125,121.941124 579.502319,130.213531 572.242432,138.480911 
	C568.289368,142.982635 564.238770,147.434555 559.872498,151.525070 
	C557.003052,154.213287 556.989136,156.604324 558.542603,159.903229 
	C564.359192,172.254898 570.198669,184.604385 575.618652,197.132477 
	C589.680664,229.636627 576.737854,264.717712 544.887268,280.250183 
	C540.539062,282.370636 541.278931,285.532410 541.126099,288.957764 
	C540.954529,292.803955 543.760986,293.023834 546.338867,293.677734 
	C558.895081,296.862976 570.559998,302.038635 581.128906,309.550079 
	C595.545593,319.796173 602.392700,335.270630 609.087219,350.748749 
	C611.392090,356.077759 612.901367,361.751831 614.753906,367.275055 
	C615.411560,369.235779 615.941040,371.590851 614.187256,372.888306 
	C610.969116,375.269135 612.041748,378.016174 612.680237,380.918274 
	C614.485474,389.123962 615.188843,397.402618 613.362183,405.677582 
	C609.785645,421.879822 599.763245,430.632263 583.254761,432.293030 
	C567.890686,433.838684 553.104858,430.522156 538.448181,426.697937 
	C529.765015,424.432251 521.245544,421.492157 512.753845,418.561523 
	C509.065002,417.288483 505.894135,417.231537 502.255676,418.957306 
	C487.590942,425.913025 472.367279,431.183899 456.069519,432.685669 
	C447.435333,433.481293 438.972412,432.283234 431.311035,428.273315 
	C416.801086,420.678925 412.917847,409.270386 413.086914,394.340515 
	C413.128021,390.709503 413.907410,387.079498 414.444763,383.463470 
	C415.042480,379.441406 416.582031,375.446808 412.640808,371.967072 
	C411.068085,370.578491 411.770935,368.218079 412.422699,366.265289 
	C416.700439,353.448151 421.531891,340.860626 428.404480,329.172150 
	C440.121124,309.245148 459.014069,299.796265 480.287781,293.893524 
	C482.768524,293.205170 485.760956,293.431763 485.873505,289.531799 
	C485.975006,286.013947 485.823730,283.097656 481.709869,281.599670 
	C474.603943,279.012207 468.359589,274.775574 462.605865,269.945374 
	C460.299377,268.009094 458.574066,268.041321 455.941437,269.172211 
	C439.826080,276.094818 422.140076,266.178162 419.281921,248.922623 
	C418.740143,245.651733 419.000183,242.435730 420.124115,239.594025 
	C421.575531,235.924332 420.525055,233.352097 418.464691,230.466583 
	C409.907806,218.482681 403.885406,205.435074 402.806458,190.528915 
	C401.428101,171.486343 408.144226,155.252930 420.551422,141.171204 
	C422.939697,138.460587 424.039581,136.081573 423.067047,132.265839 
	C421.524750,126.214584 423.994141,121.009361 428.808929,117.276749 
	C433.485718,113.651184 438.970825,112.653488 444.288940,115.594643 
	C448.108185,117.706863 451.312714,117.318031 455.048889,115.653877 
	C474.985687,106.773727 495.071381,106.847794 515.550903,115.242661 
M468.513397,191.035431 
	C467.711090,191.631241 466.970795,192.345459 466.096191,192.803146 
	C461.269531,195.329102 460.153015,198.747055 461.663330,204.198898 
	C463.773987,211.817780 463.260071,219.662125 460.773743,227.320206 
	C457.634460,236.989609 456.612579,237.583801 447.206635,234.229568 
	C446.892853,234.117645 446.577271,234.009995 446.258881,233.912094 
	C440.435272,232.121109 434.195709,233.837219 430.851593,238.147858 
	C427.425690,242.563919 427.419922,249.409271 430.837738,254.554855 
	C437.170959,264.089600 450.161926,265.111694 458.467773,256.699554 
	C460.001221,255.146469 461.399353,253.214783 463.938873,254.222626 
	C466.397766,255.198502 467.508911,257.207367 467.014832,259.836517 
	C466.663452,261.706207 467.756104,262.575653 469.003906,263.480408 
	C473.863800,267.004211 478.796326,270.405548 484.297302,272.888794 
	C495.465424,277.930267 496.255219,279.297852 495.068878,291.715515 
	C494.863251,293.867981 494.545288,296.011414 494.222076,298.150421 
	C493.951630,299.939941 494.551117,301.349884 495.712402,302.706268 
	C504.025421,312.415924 521.437683,313.143005 530.404297,304.116089 
	C531.704041,302.807587 533.262817,301.465424 533.076599,299.504944 
	C532.641785,294.926758 531.917480,290.376099 531.281372,285.596008 
	C526.372498,286.102692 521.945435,286.773621 517.499512,286.940765 
	C514.690674,287.046387 511.966431,285.941803 511.891327,282.543427 
	C511.817352,279.197784 514.350342,277.926727 517.237793,277.843384 
	C520.920349,277.737152 524.536011,277.323792 528.133606,276.600037 
	C558.448364,270.501282 577.058350,242.260117 570.725464,211.977692 
	C568.518188,201.422821 563.336182,192.061111 559.141113,182.278809 
	C556.815491,176.855637 553.518799,173.737579 547.791687,172.661713 
	C544.054749,171.959717 540.562073,171.955368 537.071228,173.564484 
	C534.704102,174.655579 532.300049,174.612396 531.099182,171.951920 
	C529.966614,169.442719 531.251648,167.382172 533.439209,166.032486 
	C536.189697,164.335464 539.240601,163.516357 542.487366,163.628006 
	C544.910461,163.711304 547.329773,163.903549 549.831848,164.052094 
	C548.074402,156.622849 546.674133,155.484772 539.963013,156.440338 
	C531.021240,157.713547 522.416687,160.141266 514.159363,163.920609 
	C498.184601,171.232239 483.400146,180.511597 468.513397,191.035431 
M603.100159,361.150146 
	C601.874939,357.874939 600.625854,354.608429 599.428467,351.323059 
	C590.331421,326.363739 573.238098,310.114502 547.391357,303.227234 
	C544.183044,302.372375 542.130005,302.447083 540.573303,305.819580 
	C539.094360,309.023621 536.444580,311.398804 533.544617,313.466614 
	C518.541992,324.164246 497.095154,320.551422 486.525269,305.436615 
	C485.212311,303.559082 484.217651,301.958160 481.403534,302.799408 
	C462.775024,308.368042 445.925751,316.462341 435.750549,334.263916 
	C430.858612,342.822449 427.077545,351.876678 423.866333,361.178192 
	C423.507202,362.218353 422.728149,363.293579 423.998047,364.734375 
	C425.376923,364.734375 427.022736,364.663544 428.660736,364.746521 
	C436.106079,365.123688 442.418365,364.500366 448.989166,358.860596 
	C454.523804,354.110199 460.852020,351.370270 461.390137,342.919586 
	C461.549133,340.422302 464.149536,339.181854 466.824158,339.962708 
	C469.283569,340.680664 470.066284,342.702026 469.822021,345.071136 
	C469.617615,347.053589 469.243134,349.025543 468.826508,350.977081 
	C468.410858,352.924042 468.838623,354.190369 470.979645,354.671143 
	C481.067413,356.936462 489.235962,362.539612 496.542389,369.574432 
	C498.542877,371.500519 500.636108,371.943573 503.369202,371.246735 
	C512.721741,368.862183 522.128723,366.690643 531.518127,364.451233 
	C540.046631,362.417145 548.609985,361.866241 557.259216,363.740265 
	C558.457886,364.000031 559.750793,364.923401 561.294617,363.640564 
	C560.379211,358.057922 559.458252,352.340607 558.498718,346.629822 
	C557.978149,343.531525 558.337891,340.583710 561.904724,339.989990 
	C565.469238,339.396667 566.752747,342.092041 567.311584,345.166168 
	C568.322815,350.729401 569.514893,356.263550 570.372070,361.849670 
	C571.015564,366.043274 572.915649,367.409698 577.180176,366.480927 
	C584.823181,364.816254 592.557739,363.613190 600.452087,364.501007 
	C602.286072,364.707306 603.933472,364.408417 603.100159,361.150146 
M422.380768,391.898651 
	C422.355255,393.564667 422.306122,395.230713 422.307922,396.896698 
	C422.323395,411.335114 429.962311,420.240143 444.205719,422.812866 
	C454.352600,424.645660 464.148987,422.848022 473.778900,420.097412 
	C494.746979,414.108215 513.905396,403.889038 532.988831,393.674683 
	C541.373962,389.186584 549.959778,386.115387 559.343506,384.981232 
	C565.133057,384.281433 565.363708,383.619446 563.784363,378.080627 
	C562.953064,375.165314 560.687561,374.381409 558.372314,373.469971 
	C549.155518,369.841492 539.895325,371.789429 530.850952,373.852905 
	C504.881195,379.777893 479.115234,386.515106 453.737183,394.664001 
	C449.185883,396.125488 447.176758,394.984772 446.496582,390.252869 
	C446.253357,388.560699 445.497070,387.528381 444.385864,386.507843 
	C441.829987,384.160370 440.177124,381.290710 439.964386,377.812653 
	C439.790833,374.975677 438.267426,374.107666 435.722565,374.150787 
	C433.891449,374.181763 432.042328,374.219360 430.229187,374.010895 
	C426.634857,373.597656 425.050079,375.392914 424.534363,378.690826 
	C423.891907,382.799713 423.157562,386.894226 422.380768,391.898651 
M543.683838,418.723419 
	C556.984741,421.786682 570.320618,424.650177 584.098022,422.734650 
	C592.737000,421.533539 599.555298,417.574432 602.766113,409.011749 
	C606.956726,397.836121 604.737549,386.758362 601.863525,375.743225 
	C601.486450,374.297974 600.214661,373.620728 598.825562,373.518585 
	C590.301331,372.891907 582.060181,374.229065 573.720093,376.867554 
	C574.104004,379.738892 574.400757,382.196106 574.765747,384.643188 
	C575.734924,391.140869 574.498230,393.107544 567.973145,393.172272 
	C550.321777,393.347443 535.958618,402.123260 521.370850,410.408539 
	C521.195374,410.508240 521.242004,410.999023 521.139587,411.552185 
	C528.202271,414.395844 535.531555,416.501892 543.683838,418.723419 
M478.759705,136.774841 
	C470.838989,132.103134 462.407684,129.521027 453.089294,130.148819 
	C444.665070,130.716370 441.207306,133.642929 439.439636,141.908752 
	C437.086273,152.913239 439.419006,163.386856 443.080322,173.663025 
	C445.300171,179.893478 448.140259,185.855011 452.083954,191.306061 
	C455.411682,189.702637 456.622284,186.764816 458.701233,184.693344 
	C469.188232,174.244064 479.572327,163.691574 490.007538,153.190201 
	C494.856384,148.310562 494.919495,148.120499 489.279755,143.875549 
	C486.098358,141.481003 482.691132,139.386551 478.759705,136.774841 
M509.145966,147.647476 
	C503.590210,153.094940 497.331909,157.822266 491.933105,164.342621 
	C497.420990,161.808090 502.316132,159.468185 507.275085,157.272385 
	C520.416687,151.453339 533.622986,145.856033 548.543396,147.613251 
	C550.184875,147.806564 551.414551,147.031235 552.541260,145.949677 
	C561.571594,137.281738 570.320618,128.368378 577.019653,117.686279 
	C578.618347,115.137047 579.965210,112.431252 580.592163,109.473763 
	C581.593567,104.749992 579.604736,102.722771 574.906433,103.744270 
	C569.654175,104.886215 564.847839,107.192574 560.152222,109.760437 
	C541.599609,119.906136 525.471008,133.317200 509.145966,147.647476 
M419.551453,158.031464 
	C405.781128,179.206253 413.056152,208.598999 423.576599,219.580399 
	C429.058899,214.316422 434.548248,209.048813 440.033997,203.777496 
	C445.402191,198.619186 445.348267,198.646362 441.732971,192.094070 
	C434.164032,178.376389 428.487183,164.124695 429.625702,148.004822 
	C429.670105,147.375946 429.697540,146.643311 428.622131,146.235992 
	C424.942474,149.248199 422.386536,153.288101 419.551453,158.031464 
M473.223175,119.423073 
	C471.324615,119.954903 469.308685,120.171478 467.031616,121.880165 
	C480.471069,125.723175 491.536041,132.935043 501.995392,141.775162 
	C507.409088,136.959076 512.524719,132.408127 518.335876,127.238441 
	C503.697235,119.020462 489.341064,116.591728 473.223175,119.423073 
M465.368164,363.067505 
	C459.678253,363.056366 454.301697,363.895233 451.008240,369.280121 
	C449.011719,372.544495 447.846863,376.212860 450.567932,379.502625 
	C453.232452,382.724030 456.613464,384.384186 461.175934,382.783417 
	C466.186432,381.025452 471.466766,380.045197 476.505066,378.354950 
	C480.038940,377.169434 484.011902,377.076172 487.162354,374.661865 
	C483.246765,369.080719 474.276489,364.186951 465.368164,363.067505 
M453.680298,215.309036 
	C453.489075,212.115997 454.320129,208.726913 452.163422,205.796204 
	C447.034821,208.914749 433.275085,222.399368 431.229736,226.366241 
	C436.017273,225.083069 440.487122,223.119247 445.414917,224.338974 
	C453.544434,226.351196 451.622162,225.180801 453.474670,218.652878 
	C453.695740,217.873764 453.610809,217.007812 453.680298,215.309036 
M437.181519,125.964943 
	C437.778656,125.275513 438.897034,124.892616 438.563721,123.645836 
	C433.650299,123.516052 432.858795,124.203537 432.234894,129.615494 
	C433.913452,128.396820 435.309906,127.382957 437.181519,125.964943 
z"/>
<path fill="#000000" opacity="1.000000" stroke="none" 
	d="
M539.485413,237.597961 
	C543.811096,235.633377 547.512085,233.454605 550.358826,230.025665 
	C551.891663,228.179337 553.801819,226.126785 556.169495,228.306656 
	C558.485535,230.438965 557.186890,232.923019 555.462036,234.943069 
	C549.212219,242.262558 541.180725,246.286240 531.683105,247.257263 
	C523.758423,248.067474 516.054932,246.953857 508.802399,243.515884 
	C506.891205,242.609909 505.199585,242.008759 503.226257,243.384064 
	C501.628174,244.497803 499.985779,244.051682 498.739227,242.664810 
	C497.335663,241.103119 497.327209,239.201202 498.470795,237.594498 
	C499.911560,235.570282 501.643921,233.746918 503.316315,231.896393 
	C504.718262,230.345108 506.403442,229.224136 508.605408,229.931458 
	C510.666962,230.593674 511.343658,232.193695 511.033142,234.270248 
	C510.718628,236.373489 512.373474,236.710190 513.753418,237.201996 
	C522.146667,240.193314 530.594727,241.073807 539.485413,237.597961 
z"/>
<path fill="#000000" opacity="1.000000" stroke="none" 
	d="
M523.383179,192.604462 
	C526.898926,189.109375 528.812195,189.164612 529.989624,193.071564 
	C531.705200,198.764114 535.334412,201.839142 540.768127,203.798462 
	C545.928528,205.659256 547.655396,210.433029 545.821655,215.648056 
	C543.981812,220.880264 537.405762,225.710526 533.374023,224.787445 
	C531.779419,224.422318 530.689880,223.514847 530.299316,221.875931 
	C529.956909,220.439240 530.353149,219.128922 531.470398,218.283234 
	C532.507446,217.498184 533.786072,217.024841 534.975891,216.450653 
	C536.676453,215.629974 538.424255,214.672409 538.412048,212.569809 
	C538.399597,210.421341 536.287170,210.290588 534.806702,209.690994 
	C526.849182,206.468170 523.218933,201.246231 523.383179,192.604462 
z"/>
<path fill="#000000" opacity="1.000000" stroke="none" 
	d="
M477.259521,200.761017 
	C475.406494,198.381851 476.205200,196.404755 477.352051,194.476959 
	C481.575409,187.377838 487.858704,183.108078 495.797729,181.159302 
	C498.452942,180.507523 501.088715,180.751556 501.998291,183.678024 
	C503.045837,187.048523 500.570312,188.538040 497.791443,189.204605 
	C491.839020,190.632416 487.247467,193.726120 484.067291,199.067505 
	C482.650055,201.447891 480.569214,203.285477 477.259521,200.761017 
z"/>
<path fill="#000000" opacity="1.000000" stroke="none" 
	d="
M506.003174,200.708160 
	C507.501862,201.801849 508.862518,202.557190 509.756287,203.683151 
	C511.085541,205.357727 511.427551,207.331924 509.773163,209.095108 
	C508.287781,210.678223 506.587494,210.435318 504.796326,209.533142 
	C498.269043,206.245468 498.257111,206.260757 494.878723,212.315353 
	C493.834808,214.186172 492.483063,215.659836 490.137512,214.853775 
	C487.815491,214.055801 487.521423,211.994141 487.835999,209.928772 
	C488.998413,202.297318 497.545563,195.525436 506.003174,200.708160 
z"/>
<path fill="#000000" opacity="1.000000" stroke="none" 
	d="
M542.540833,183.172119 
	C548.442627,181.114624 553.755859,182.452820 556.696594,186.505966 
	C557.948669,188.231598 558.641907,190.055664 556.865540,191.876602 
	C555.291809,193.489883 553.564697,193.254166 551.965759,191.971512 
	C547.873108,188.688354 544.803223,189.086044 542.799133,194.249771 
	C542.035156,196.218185 540.451050,197.059357 538.392273,196.425598 
	C535.897217,195.657532 535.866333,193.662949 536.298218,191.571640 
	C537.042786,187.966614 538.961182,185.188507 542.540833,183.172119 
z"/>
<path fill="#000000" opacity="1.000000" stroke="none" 
	d="
M452.203735,245.052612 
	C452.930389,246.595078 453.593475,247.772415 453.953339,249.036118 
	C454.555481,251.150543 454.186646,253.145584 451.979706,254.073929 
	C449.971954,254.918472 447.794250,254.615372 446.725464,252.580002 
	C444.961121,249.219940 442.530762,247.686066 438.694611,248.153656 
	C436.442047,248.428223 434.821106,247.208557 434.269775,244.983444 
	C433.641571,242.448288 435.070374,240.894730 437.164093,239.827820 
	C441.719177,237.506729 447.410919,239.397278 452.203735,245.052612 
z"/>
</svg>